<svg width="473" height="256" viewBox="0 0 473 256" fill="none" xmlns="http://www.w3.org/2000/svg">
<g filter="url(#filter0_d_33_29)">
<path d="M79.9801 225H74.4403L90.4631 181.364H95.9176L111.94 225H106.401L93.3608 188.267H93.0199L79.9801 225ZM82.0256 207.955H104.355V212.642H82.0256V207.955ZM131.266 237.955C128.837 237.955 126.749 237.642 125.001 237.017C123.254 236.406 121.798 235.597 120.634 234.588C119.483 233.594 118.567 232.528 117.885 231.392L121.891 228.58C122.345 229.176 122.92 229.858 123.616 230.625C124.313 231.406 125.264 232.081 126.472 232.649C127.693 233.232 129.291 233.523 131.266 233.523C133.908 233.523 136.088 232.884 137.807 231.605C139.526 230.327 140.385 228.324 140.385 225.597V218.949H139.959C139.589 219.545 139.064 220.284 138.382 221.165C137.714 222.031 136.749 222.805 135.484 223.487C134.234 224.155 132.544 224.489 130.413 224.489C127.771 224.489 125.399 223.864 123.297 222.614C121.209 221.364 119.554 219.545 118.332 217.159C117.125 214.773 116.521 211.875 116.521 208.466C116.521 205.114 117.111 202.195 118.29 199.709C119.469 197.209 121.109 195.277 123.212 193.913C125.314 192.536 127.743 191.847 130.499 191.847C132.629 191.847 134.32 192.202 135.57 192.912C136.834 193.608 137.8 194.403 138.467 195.298C139.149 196.179 139.675 196.903 140.044 197.472H140.555V192.273H145.413V225.938C145.413 228.75 144.774 231.037 143.496 232.798C142.232 234.574 140.527 235.874 138.382 236.697C136.251 237.536 133.879 237.955 131.266 237.955ZM131.095 219.972C133.112 219.972 134.817 219.51 136.209 218.587C137.601 217.663 138.659 216.335 139.384 214.602C140.108 212.869 140.47 210.795 140.47 208.381C140.47 206.023 140.115 203.942 139.405 202.138C138.695 200.334 137.643 198.92 136.251 197.898C134.859 196.875 133.141 196.364 131.095 196.364C128.964 196.364 127.189 196.903 125.768 197.983C124.362 199.062 123.304 200.511 122.594 202.33C121.898 204.148 121.55 206.165 121.55 208.381C121.55 210.653 121.905 212.663 122.615 214.411C123.339 216.143 124.405 217.507 125.811 218.501C127.232 219.482 128.993 219.972 131.095 219.972ZM168.339 225.682C165.186 225.682 162.466 224.986 160.179 223.594C157.906 222.188 156.152 220.227 154.916 217.713C153.695 215.185 153.084 212.244 153.084 208.892C153.084 205.54 153.695 202.585 154.916 200.028C156.152 197.457 157.871 195.455 160.072 194.02C162.288 192.571 164.874 191.847 167.828 191.847C169.533 191.847 171.216 192.131 172.878 192.699C174.54 193.267 176.053 194.19 177.416 195.469C178.78 196.733 179.866 198.409 180.676 200.497C181.486 202.585 181.891 205.156 181.891 208.21V210.341H156.663V205.994H176.777C176.777 204.148 176.408 202.5 175.669 201.051C174.945 199.602 173.908 198.459 172.558 197.621C171.223 196.783 169.646 196.364 167.828 196.364C165.825 196.364 164.092 196.861 162.629 197.855C161.18 198.835 160.065 200.114 159.284 201.69C158.503 203.267 158.112 204.957 158.112 206.761V209.659C158.112 212.131 158.538 214.226 159.391 215.945C160.257 217.649 161.457 218.949 162.991 219.844C164.526 220.724 166.308 221.165 168.339 221.165C169.661 221.165 170.854 220.98 171.919 220.611C172.999 220.227 173.929 219.659 174.71 218.906C175.491 218.139 176.095 217.187 176.521 216.051L181.379 217.415C180.868 219.062 180.009 220.511 178.801 221.761C177.594 222.997 176.102 223.963 174.327 224.659C172.551 225.341 170.555 225.682 168.339 225.682ZM194.568 205.312V225H189.54V192.273H194.398V197.386H194.824C195.591 195.724 196.756 194.389 198.318 193.381C199.881 192.358 201.898 191.847 204.369 191.847C206.585 191.847 208.524 192.301 210.186 193.21C211.848 194.105 213.141 195.469 214.064 197.301C214.987 199.119 215.449 201.42 215.449 204.205V225H210.42V204.545C210.42 201.974 209.753 199.972 208.418 198.537C207.082 197.088 205.25 196.364 202.92 196.364C201.315 196.364 199.881 196.712 198.616 197.408C197.366 198.104 196.379 199.119 195.655 200.455C194.93 201.79 194.568 203.409 194.568 205.312ZM236.995 225.682C234.268 225.682 231.86 224.993 229.772 223.615C227.684 222.223 226.051 220.263 224.872 217.734C223.693 215.192 223.103 212.188 223.103 208.722C223.103 205.284 223.693 202.301 224.872 199.773C226.051 197.244 227.691 195.291 229.794 193.913C231.896 192.536 234.325 191.847 237.081 191.847C239.211 191.847 240.895 192.202 242.13 192.912C243.38 193.608 244.332 194.403 244.985 195.298C245.653 196.179 246.172 196.903 246.541 197.472H246.967V181.364H251.995V225H247.137V219.972H246.541C246.172 220.568 245.646 221.321 244.964 222.23C244.282 223.125 243.309 223.928 242.045 224.638C240.781 225.334 239.098 225.682 236.995 225.682ZM237.677 221.165C239.694 221.165 241.399 220.639 242.791 219.588C244.183 218.523 245.241 217.053 245.966 215.178C246.69 213.288 247.052 211.108 247.052 208.636C247.052 206.193 246.697 204.055 245.987 202.223C245.277 200.376 244.225 198.942 242.833 197.919C241.441 196.882 239.723 196.364 237.677 196.364C235.547 196.364 233.771 196.911 232.35 198.004C230.944 199.084 229.886 200.554 229.176 202.415C228.48 204.261 228.132 206.335 228.132 208.636C228.132 210.966 228.487 213.082 229.197 214.986C229.922 216.875 230.987 218.381 232.393 219.503C233.814 220.611 235.575 221.165 237.677 221.165ZM271.534 225.767C269.46 225.767 267.578 225.376 265.887 224.595C264.197 223.8 262.855 222.656 261.86 221.165C260.866 219.659 260.369 217.841 260.369 215.71C260.369 213.835 260.738 212.315 261.477 211.151C262.216 209.972 263.203 209.048 264.439 208.381C265.674 207.713 267.038 207.216 268.529 206.889C270.035 206.548 271.548 206.278 273.068 206.08C275.056 205.824 276.669 205.632 277.904 205.504C279.154 205.362 280.064 205.128 280.632 204.801C281.214 204.474 281.505 203.906 281.505 203.097V202.926C281.505 200.824 280.93 199.19 279.779 198.026C278.643 196.861 276.917 196.278 274.602 196.278C272.201 196.278 270.319 196.804 268.956 197.855C267.592 198.906 266.633 200.028 266.079 201.222L261.306 199.517C262.159 197.528 263.295 195.98 264.716 194.872C266.15 193.75 267.713 192.969 269.403 192.528C271.108 192.074 272.784 191.847 274.431 191.847C275.483 191.847 276.69 191.974 278.054 192.23C279.431 192.472 280.76 192.976 282.038 193.743C283.331 194.51 284.403 195.668 285.255 197.216C286.108 198.764 286.534 200.838 286.534 203.438V225H281.505V220.568H281.25C280.909 221.278 280.341 222.038 279.545 222.848C278.75 223.658 277.691 224.347 276.37 224.915C275.049 225.483 273.437 225.767 271.534 225.767ZM272.301 221.25C274.289 221.25 275.966 220.859 277.329 220.078C278.707 219.297 279.744 218.288 280.44 217.053C281.15 215.817 281.505 214.517 281.505 213.153V208.551C281.292 208.807 280.824 209.041 280.099 209.254C279.389 209.453 278.565 209.631 277.627 209.787C276.704 209.929 275.802 210.057 274.922 210.17C274.055 210.27 273.352 210.355 272.812 210.426C271.505 210.597 270.284 210.874 269.147 211.257C268.025 211.626 267.116 212.187 266.42 212.94C265.738 213.679 265.397 214.687 265.397 215.966C265.397 217.713 266.044 219.034 267.336 219.929C268.643 220.81 270.298 221.25 272.301 221.25ZM298.183 225H292.643L308.666 181.364H314.121L330.143 225H324.604L311.564 188.267H311.223L298.183 225ZM300.229 207.955H322.558V212.642H300.229V207.955ZM349.554 225.682C346.486 225.682 343.844 224.957 341.628 223.509C339.412 222.06 337.707 220.064 336.514 217.521C335.321 214.979 334.724 212.074 334.724 208.807C334.724 205.483 335.335 202.55 336.557 200.007C337.793 197.45 339.511 195.455 341.713 194.02C343.929 192.571 346.514 191.847 349.469 191.847C351.77 191.847 353.844 192.273 355.69 193.125C357.537 193.977 359.05 195.17 360.229 196.705C361.408 198.239 362.139 200.028 362.423 202.074H357.395C357.011 200.582 356.159 199.261 354.838 198.111C353.531 196.946 351.77 196.364 349.554 196.364C347.594 196.364 345.875 196.875 344.398 197.898C342.935 198.906 341.791 200.334 340.967 202.18C340.158 204.013 339.753 206.165 339.753 208.636C339.753 211.165 340.151 213.366 340.946 215.241C341.756 217.116 342.892 218.572 344.355 219.609C345.832 220.646 347.565 221.165 349.554 221.165C350.861 221.165 352.047 220.938 353.112 220.483C354.178 220.028 355.08 219.375 355.818 218.523C356.557 217.67 357.082 216.648 357.395 215.455H362.423C362.139 217.386 361.436 219.126 360.314 220.675C359.206 222.209 357.736 223.43 355.903 224.339C354.085 225.234 351.969 225.682 349.554 225.682ZM383.496 225.682C380.342 225.682 377.622 224.986 375.335 223.594C373.062 222.188 371.308 220.227 370.072 217.713C368.851 215.185 368.24 212.244 368.24 208.892C368.24 205.54 368.851 202.585 370.072 200.028C371.308 197.457 373.027 195.455 375.229 194.02C377.445 192.571 380.03 191.847 382.984 191.847C384.689 191.847 386.372 192.131 388.034 192.699C389.696 193.267 391.209 194.19 392.572 195.469C393.936 196.733 395.023 198.409 395.832 200.497C396.642 202.585 397.047 205.156 397.047 208.21V210.341H371.82V205.994H391.933C391.933 204.148 391.564 202.5 390.825 201.051C390.101 199.602 389.064 198.459 387.714 197.621C386.379 196.783 384.803 196.364 382.984 196.364C380.982 196.364 379.249 196.861 377.786 197.855C376.337 198.835 375.222 200.114 374.44 201.69C373.659 203.267 373.268 204.957 373.268 206.761V209.659C373.268 212.131 373.695 214.226 374.547 215.945C375.413 217.649 376.614 218.949 378.148 219.844C379.682 220.724 381.464 221.165 383.496 221.165C384.817 221.165 386.01 220.98 387.075 220.611C388.155 220.227 389.085 219.659 389.866 218.906C390.648 218.139 391.251 217.187 391.678 216.051L396.536 217.415C396.024 219.062 395.165 220.511 393.957 221.761C392.75 222.997 391.259 223.963 389.483 224.659C387.707 225.341 385.712 225.682 383.496 225.682Z" fill="url(#paint0_linear_33_29)" shape-rendering="crispEdges"/>
</g>
<path d="M223.66 0V9.90592L214.078 9.90938V0.0014115H205.449V9.91003H196.129V9.8952H187.5V9.91003V18.5391V34.0715V42.7006V129.583V138.212H196.129H277.243H285.256H285.872V78.9921V9.89522L268.186 9.89867V0.000168537H259.557V9.90002L249.975 9.90348V0.00158004H241.346V9.90483H232.289V0.000231739L223.66 0ZM196.129 18.5404H205.449V25.888H214.078V18.5404H223.66V25.888H232.289V18.5404H241.346V25.888H249.975V18.5404H259.557V25.888H268.186V18.5404H277.243V34.0728H196.129V18.5404ZM196.129 42.7019H277.243V81.4095V129.584H196.129V42.7019ZM204.915 53.1438V61.7729H215.48V53.1438H204.915ZM224.109 53.1438V61.7729H268.129V53.1438H224.109ZM204.915 73.1633V81.7924H215.48V73.1633H204.915ZM224.109 73.1633V81.7924H268.113V73.1633H224.109ZM204.915 93.1828V101.812H215.48V93.1828H204.915ZM224.109 93.1828V101.812H267.973V93.1828H224.109ZM204.915 112.512V121.141H215.48V112.512H204.915ZM224.109 112.512V121.141H268.12V112.512H224.109Z" fill="url(#paint1_linear_33_29)"/>
<defs>
<filter id="filter0_d_33_29" x="70.4403" y="181.364" width="330.607" height="64.5909" filterUnits="userSpaceOnUse" color-interpolation-filters="sRGB">
<feFlood flood-opacity="0" result="BackgroundImageFix"/>
<feColorMatrix in="SourceAlpha" type="matrix" values="0 0 0 0 0 0 0 0 0 0 0 0 0 0 0 0 0 0 127 0" result="hardAlpha"/>
<feOffset dy="4"/>
<feGaussianBlur stdDeviation="2"/>
<feComposite in2="hardAlpha" operator="out"/>
<feColorMatrix type="matrix" values="0 0 0 0 0 0 0 0 0 0 0 0 0 0 0 0 0 0 0.25 0"/>
<feBlend mode="normal" in2="BackgroundImageFix" result="effect1_dropShadow_33_29"/>
<feBlend mode="normal" in="SourceGraphic" in2="effect1_dropShadow_33_29" result="shape"/>
</filter>
<linearGradient id="paint0_linear_33_29" x1="236.5" y1="151" x2="236.5" y2="256" gradientUnits="userSpaceOnUse">
<stop stop-color="#485563" stop-opacity="0.533333"/>
<stop offset="1" stop-color="#29323C"/>
</linearGradient>
<linearGradient id="paint1_linear_33_29" x1="236.686" y1="0" x2="236.686" y2="138.212" gradientUnits="userSpaceOnUse">
<stop stop-color="#485563"/>
<stop offset="1" stop-color="#29323C" stop-opacity="0.533333"/>
</linearGradient>
</defs>
</svg>
